<svg xmlns="http://www.w3.org/2000/svg" data-name="Layer 1" width="898.09814" height="398.74219" style=""><rect id="backgroundrect" width="100%" height="100%" x="0" y="0" fill="none" stroke="none"/><g class="currentLayer" style=""><title>Layer 1</title><path d="M382.338382265625,254.74218374999998 H18.500002265625 a18.5208,18.5208 0 0 1 -18.5,-18.5 V14.088383749999991 a14.104,14.104 0 0 1 14.08789,-14.08838 H386.54126226562505 a14.31325,14.31325 0 0 1 14.29712,14.29736 V236.24218374999998 A18.5208,18.5208 0 0 1 382.338382265625,254.74218374999998 z" fill="#fff" id="svg_1"/><path d="M382.338382265625,254.74218374999998 H18.500002265625 a18.5208,18.5208 0 0 1 -18.5,-18.5 V14.088383749999991 a14.104,14.104 0 0 1 14.08789,-14.08838 H386.54126226562505 a14.31325,14.31325 0 0 1 14.29712,14.29736 V236.24218374999998 A18.5208,18.5208 0 0 1 382.338382265625,254.74218374999998 zM14.087892265624987,4.0000037499999905 a10.09971,10.09971 0 0 0 -10.08789,10.08838 v222.1538 a14.51653,14.51653 0 0 0 14.5,14.5 H382.338382265625 a14.51653,14.51653 0 0 0 14.5,-14.5 V14.297363749999988 a10.30867,10.30867 0 0 0 -10.29712,-10.29736 z" fill="#e6e6e6" id="svg_2"/><path d="M166.111432265625,198.49600375 h-109.02 a11.01778,11.01778 0 0 1 -10.905,-9.563 a9.974920000000001,9.974920000000001 0 0 1 -0.09500000000000003,-1.437 v-120.25 a11.01245,11.01245 0 0 1 11,-11 h109.02 a11.01245,11.01245 0 0 1 11,11 v120.25 A11.01245,11.01245 0 0 1 166.111432265625,198.49600375 zm-109.02,-136.25 a5.00573,5.00573 0 0 0 -5,5 v120.25 a4.26094,4.26094 0 0 0 0.038090000000000006,0.6147500000000001 a5.01529,5.01529 0 0 0 4.96191,4.38525 h109.02 a5.00573,5.00573 0 0 0 5,-5 v-120.25 a5.00573,5.00573 0 0 0 -5,-5 z" fill="#e6e6e6" id="svg_3"/><path d="M346.746892265625,159.39590375 h-132 a8,8 0 1 1 0,-16 h132 a8,8 0 0 1 0,16 z" fill="#e6e6e6" id="svg_4"/><path d="M286.746892265625,125.39590375 h-72 a8,8 0 1 1 0,-16 h72 a8,8 0 0 1 0,16 z" fill="#e6e6e6" id="svg_5"/><path d="M147.547832265625,124.06603374999997 c0,17.67311 -16.3416,15 -36.5,15 s-36.5,2.6731100000000003 -36.5,-15 s7.98246,-49 36.5,-49 C140.547832265625,75.06603374999997 147.547832265625,106.39292375000002 147.547832265625,124.06603374999997 z" fill="#2f2e41" id="svg_6"/><path d="M149.024172265625,153.80981375 a9.06449,9.06449 0 0 0 -3.96,-4.84 a7.8666,7.8666 0 0 0 -1.12012,-0.5700000000000001 a9.05434,9.05434 0 0 0 -11.98,11.47 l14.54,33.05 H165.65407226562502 z" fill="#3f3d56" id="svg_7"/><path d="M85.573972265625,155.60980375000003 a9.05548,9.05548 0 0 0 -12.48974,5.17 l-13.54,31.85 a7.8764,7.8764 0 0 0 2.12988,0.29000000000000004 h16.99023 l11.4795,-26.08 A9.037,9.037 0 0 0 85.573972265625,155.60980375000003 z" fill="#3f3d56" id="svg_8"/><circle cx="110.92578887939453" cy="114.47547912597656" r="24.5610294342041" fill="#ffb8b8" id="svg_9"/><path d="M145.493892265625,149.35980375000003 c-0.13964000000000001,-0.13 -0.27978000000000003,-0.27 -0.42968000000000006,-0.39000000000000007 a15.95256,15.95256 0 0 0 -12.75,-3.9699999999999998 l-45.26026,5.73 a16.06191,16.06191 0 0 0 -14.02,17.44 c0.6201200000000001,6.98 1.62012,15.79 3.22022,24.75 h71.5 l2.62988,-30.56 A16.035,16.035 0 0 0 145.493892265625,149.35980375000003 z" fill="#3f3d56" id="svg_10"/><path d="M82.547832265625,112.06601375000002 v0 h9.71436 l4.28564,-12 l0.8569400000000001,12 h4.64306 l2.5,-7 l0.5,7 h34.5 v0 a26,26 0 0 0 -26,-26 h-5 A26,26 0 0 0 82.547832265625,112.06601375000002 z" fill="#2f2e41" id="svg_11"/><path d="M497.259762265625,236.24218374999998 V14.297363749999988 a14.31325,14.31325 0 0 1 14.29712,-14.29736 h372.45337 a14.104,14.104 0 0 1 14.08789,14.08838 v222.1538 a18.5208,18.5208 0 0 1 -18.5,18.5 H515.759762265625 A18.5208,18.5208 0 0 1 497.259762265625,236.24218374999998 z" fill="#fff" id="svg_12"/><path d="M497.259762265625,236.24218374999998 V14.297363749999988 a14.31325,14.31325 0 0 1 14.29712,-14.29736 h372.45337 a14.104,14.104 0 0 1 14.08789,14.08838 v222.1538 a18.5208,18.5208 0 0 1 -18.5,18.5 H515.759762265625 A18.5208,18.5208 0 0 1 497.259762265625,236.24218374999998 zm14.29712,-232.24218 a10.30867,10.30867 0 0 0 -10.29712,10.29736 V236.24218374999998 a14.51653,14.51653 0 0 0 14.5,14.5 h363.83838 a14.51653,14.51653 0 0 0 14.5,-14.5 V14.088383749999991 a10.09971,10.09971 0 0 0 -10.08789,-10.08838 z" fill="#e6e6e6" id="svg_13"/><path d="M720.986712265625,187.49600375 v-120.25 a11.01245,11.01245 0 0 1 11,-11 h109.02 a11.01245,11.01245 0 0 1 11,11 v120.25 a9.974920000000001,9.974920000000001 0 0 1 -0.09500000000000003,1.437 a11.01778,11.01778 0 0 1 -10.905,9.563 h-109.02 A11.01245,11.01245 0 0 1 720.986712265625,187.49600375 zm11,-125.25 a5.00573,5.00573 0 0 0 -5,5 v120.25 a5.00573,5.00573 0 0 0 5,5 h109.02 a5.01529,5.01529 0 0 0 4.96191,-4.38525 a4.26094,4.26094 0 0 0 0.038090000000000006,-0.6147500000000001 v-120.25 a5.00573,5.00573 0 0 0 -5,-5 z" fill="#e6e6e6" id="svg_14"/><path d="M543.351252265625,151.39590375 a8.00917,8.00917 0 0 1 8,-8 h132 a8,8 0 1 1 0,16 h-132 A8.00916,8.00916 0 0 1 543.351252265625,151.39590375 z" fill="#e6e6e6" id="svg_15"/><path d="M543.351252265625,117.39590375 a8.00917,8.00917 0 0 1 8,-8 h72 a8,8 0 1 1 0,16 h-72 A8.00916,8.00916 0 0 1 543.351252265625,117.39590375 z" fill="#e6e6e6" id="svg_16"/><path d="M759.554542265625,102.97587375 c7.01074,13.78357 12.536,28 28,28 a28,28 0 0 0 0,-56 C771.838722265625,74.77909375000002 746.505712265625,77.32047375000002 759.554542265625,102.97587375 z" fill="#2f2e41" id="svg_17"/><circle cx="786.1765747070312" cy="106.96012115478516" r="24.5610294342041" fill="#a0616a" id="svg_18"/><path d="M819.708742265625,151.72985375000002 a42.79043,42.79043 0 0 0 -5.1499,-4.76 a41.72508,41.72508 0 0 0 -28.39014,-8.8 q-0.61451,0.029940000000000005 -1.23,0.09000000000000002 a41.82491,41.82491 0 0 0 -30.15967,16.64 a42.34634,42.34634 0 0 0 -7.52,34.15 c0.27,1.25 0.5097700000000001,2.51 0.7397500000000001,3.77 h81.41992 l0.9399400000000001,-6.3 A42.09424,42.09424 0 0 0 819.708742265625,151.72985375000002 z" fill="#3f3d56" id="svg_19"/><path d="M832.178952265625,158.29986375 a14.25389,14.25389 0 0 0 -13.93017,-11.8 c-0.12989,0 -0.27,0.010000000000000002 -0.3999100000000001,0.010000000000000002 a14.34716,14.34716 0 0 0 -3.29,0.46 a14.19973,14.19973 0 0 0 -10.06006,17.43 l7.68994,28.42 H838.069072265625 z" fill="#3f3d56" id="svg_20"/><path d="M775.228762265625,150.84985375000002 a14.17548,14.17548 0 0 0 -4.08985,-4.88 a13.76889,13.76889 0 0 0 -4.02,-2.1 a13.35784,13.35784 0 0 0 -1.81005,-0.48000000000000004 a14.2719,14.2719 0 0 0 -16.1001,9.24 l-14.07959,40.19 H761.848872265625 l13.62989,-29.56 A14.091,14.091 0 0 0 775.228762265625,150.84985375000002 z" fill="#3f3d56" id="svg_21"/><path d="M760.113492265625,93.07952375000002 a33.40479,33.40479 0 0 0 19.09068,5.89985 a20.47074,20.47074 0 0 1 -8.11361,3.338 a67.35879,67.35879 0 0 0 27.514,0.15460000000000002 a17.80739,17.80739 0 0 0 5.7597700000000005,-1.97824 a7.28916,7.28916 0 0 0 3.5552099999999998,-4.7547 c0.6036500000000001,-3.4485200000000003 -2.08347,-6.58158 -4.876,-8.69308 A35.96735,35.96735 0 0 0 772.819072265625,81.00628375000002 c-3.37627,0.8727200000000002 -6.75853,2.34726 -8.9515,5.05866 s-2.84258,6.8915 -0.7532200000000001,9.68352 z" fill="#2f2e41" id="svg_22"/><path d="M630.968262265625,398.74218375 H267.129882265625 a18.5208,18.5208 0 0 1 -18.5,-18.5 V158.08838375 a14.104,14.104 0 0 1 14.08789,-14.08838 H635.171142265625 a14.31325,14.31325 0 0 1 14.29712,14.29736 V380.24218375 A18.5208,18.5208 0 0 1 630.968262265625,398.74218375 z" fill="#fff" id="svg_23"/><path d="M630.968262265625,398.74218375 H267.129882265625 a18.5208,18.5208 0 0 1 -18.5,-18.5 V158.08838375 a14.104,14.104 0 0 1 14.08789,-14.08838 H635.171142265625 a14.31325,14.31325 0 0 1 14.29712,14.29736 V380.24218375 A18.5208,18.5208 0 0 1 630.968262265625,398.74218375 zM262.717772265625,148.00000375000002 a10.09971,10.09971 0 0 0 -10.08789,10.08838 v222.1538 a14.51653,14.51653 0 0 0 14.5,14.5 H630.968262265625 a14.51653,14.51653 0 0 0 14.5,-14.5 V158.29736375 a10.30867,10.30867 0 0 0 -10.29712,-10.29736 z" fill="#3f3d56" id="svg_24"/><path d="M414.74131226562497,342.49600375 h-109.02 a11.01778,11.01778 0 0 1 -10.905,-9.563 a9.97635,9.97635 0 0 1 -0.09500000000000003,-1.437 v-120.25 a11.01245,11.01245 0 0 1 11,-11 h109.02 a11.01245,11.01245 0 0 1 11,11 v120.25 A11.01245,11.01245 0 0 1 414.74131226562497,342.49600375 zm-109.02,-136.25 a5.00573,5.00573 0 0 0 -5,5 v120.25 a4.26238,4.26238 0 0 0 0.038090000000000006,0.6147500000000001 a5.01529,5.01529 0 0 0 4.96191,4.38525 h109.02 a5.00573,5.00573 0 0 0 5,-5 v-120.25 a5.00573,5.00573 0 0 0 -5,-5 z" fill="#e6e6e6" id="svg_25"/><path d="M358.648322265625,222.22990375 c-7.097,-3.3015600000000003 -15.81044,-4.38389 -23.03182,-1.316 s-12.14452,10.93153 -9.80947,17.89082 c1.05869,3.15525 3.46989,6.25836 2.53051,9.445 c-0.7230700000000001,2.45284 -3.24546,4.07226 -5.72259,5.22372 s-5.18694,2.11951 -6.97842,4.06155 s-2.16509,5.2853200000000005 0.07286000000000001,6.79138 c0.73731,0.49619 1.6588500000000002,0.7315 2.3737500000000002,1.25437 a3.7720000000000002,3.7720000000000002 0 0 1 1.16432,4.2222 a8.89327,8.89327 0 0 1 -2.8508400000000003,3.7506500000000003 c-2.54053,2.19094 -5.898070000000001,4.6984900000000005 -5.10925,7.80873 a5.47829,5.47829 0 0 0 3.697,3.4578800000000003 a18.36721,18.36721 0 0 0 5.42688,0.7162700000000001 l74.96621,2.36156 a28.42291,28.42291 0 0 0 7.40167,-0.41344000000000003 a8.76188,8.76188 0 0 0 5.81294,-3.9050000000000002 c1.43559,-2.65728 0.49310000000000004,-5.93058 -1.2798,-8.41187 s-4.282,-4.43862 -6.35525,-6.71708 s-3.76948,-5.12271 -3.404,-8.06748 c0.29256000000000004,-2.35732 1.84718,-4.3947 2.96321,-6.5366 s1.7642700000000002,-4.81848 0.3188600000000001,-6.78894 c-2.03678,-2.77664 -6.92687,-2.5255 -9.24284,-5.11283 c-1.74777,-1.95255 -1.4102700000000001,-4.76345 -1.584,-7.28134 c-0.41800000000000004,-6.05656 -4.61117,-11.77645 -10.58027,-14.43257 a20.83058,20.83058 0 0 0 -18.95323,1.2908 z" fill="#2f2e41" id="svg_26"/><circle cx="361.4220886230469" cy="262.756103515625" r="24.5610294342041" fill="#a0616a" id="svg_27"/><path d="M393.66842226562505,319.03592375000005 a23.78832,23.78832 0 0 0 -12.68018,-20.9 c-0.30957000000000007,-0.17 -0.6298800000000001,-0.32000000000000006 -0.94971,-0.47000000000000003 a23.61949,23.61949 0 0 0 -8.81005,-2.24 l-23.37989,-1.31 a23.60045,23.60045 0 0 0 -9.70019,1.49 a22.6607,22.6607 0 0 0 -2.21,0.9600000000000001 a23.53962,23.53962 0 0 0 -6.12012,4.35 a23.80582,23.80582 0 0 0 -7.06006,17.94 l0.42041000000000006,9.91 l2.93994,7.63 h65.36963 a17.95992,17.95992 0 0 0 2.1001,-3.18 A15.91881,15.91881 0 0 0 393.66842226562505,319.03592375000005 z" fill="#3f3d56" id="svg_28"/><path d="M392.06832226562506,305.89590375 a14.14311,14.14311 0 0 0 -4.839840000000001,-5.74 a14.45108,14.45108 0 0 0 -5.01026,-2.18 a14.66536,14.66536 0 0 0 -2.17969,-0.31000000000000005 a14.087,14.087 0 0 0 -4.30029,0.37000000000000005 a14.2736,14.2736 0 0 0 -9.18994,20.49 l8.99023,17.02 l0.44971000000000005,0.8500000000000001 H406.178672265625 z" fill="#3f3d56" id="svg_29"/><path d="M342.658162265625,297.02591375 a14.34142,14.34142 0 0 0 -4.50976,-1.42 a13.89783,13.89783 0 0 0 -3.52979,-0.05000000000000001 a14.25733,14.25733 0 0 0 -12.36035,11.29 l-6.08984,29.55 h23.81982 l4.4502,-1.8199400000000001 l5.54,-21.26 A14.31954,14.31954 0 0 0 342.658162265625,297.02591375 z" fill="#3f3d56" id="svg_30"/><path d="M336.295422265625,259.26424375 c7.75642,-0.6228500000000001 14.19623,-8.371410000000001 13.38973,-16.1109 A13.00908,13.00908 0 0 0 360.826362265625,256.39909375 c3.5578700000000003,0.39200000000000007 7.4584,-0.6844400000000002 10.55524,1.11048 c3.43,1.988 4.52758,6.8157700000000006 8.10091,8.532820000000001 c3.45255,1.6590000000000003 7.8377,-0.6036100000000001 9.54345,-4.03331 s1.28714,-7.5502 0.15670000000000003,-11.21 a31.65249,31.65249 0 0 0 -52.68951,-12.97513 c-3.26143,3.28049 -5.851,7.46146 -6.271,12.06822 s1.71705,9.60534 5.85416,11.67485 z" fill="#2f2e41" id="svg_31"/><path d="M595.376772265625,303.39590375 h-132 a8,8 0 1 1 0,-16 h132 a8,8 0 0 1 0,16 z" fill="#e6e6e6" id="svg_32"/><path d="M535.376772265625,269.39590375 h-72 a8,8 0 1 1 0,-16 h72 a8,8 0 0 1 0,16 z" fill="#ffa500" id="svg_33" class="" fill-opacity="1"/><path d="M574.009662265625,327.81982374999995 a26.378,26.378 0 0 0 -0.00020000000000000006,52.75591 h0.00020000000000000006 a26.378,26.378 0 0 0 0,-52.75591 z" fill="#ffa500" id="svg_34" class="" fill-opacity="1"/><path id="f276b720-7c73-4755-84a7-b208d54eb1fc" data-name="Path 395" d="M571.506792265625,365.15271375 a3.20123,3.20123 0 0 1 -1.9259,-0.6400600000000001 l-0.034460000000000005,-0.025840000000000002 l-7.25395,-5.549 a3.22361,3.22361 0 0 1 3.92261,-5.11661 l4.69853,3.60305 l11.10288,-14.48493 a3.22224,3.22224 0 0 1 4.51774,-0.5967300000000001 l0.0009300000000000003,0.0007000000000000002 l-0.06890000000000002,0.09568000000000003 l0.07077000000000001,-0.09568000000000003 a3.22613,3.22613 0 0 1 0.5960000000000001,4.51864 l-13.05941,17.02985 a3.22419,3.22419 0 0 1 -2.564,1.25715 z" fill="#fff"/></g></svg>