<svg xmlns="http://www.w3.org/2000/svg" data-name="Layer 1" width="949" height="568.6527709960938" style=""><rect id="backgroundrect" width="100%" height="100%" x="0" y="0" fill="none" stroke="none"/><g class="currentLayer" style=""><title>Layer 1</title><path d="M368.45429,509.50002075683597 a31.51716,31.51716 0 0 1 -30.43451,-5.36117 c-10.65985,-8.94708 -14.002,-23.68733 -16.72141,-37.336 l-8.04348,-40.37019 l16.83986,11.59529 c12.11023,8.33865 24.49328,16.94444 32.87836,29.02256 s12.04517,28.56585 5.308,41.63494 " fill="#e6e6e6" id="svg_1"/><path d="M367.01482,558.376540756836 c1.70442,-12.415 3.457,-24.98956 2.26145,-37.53768 c-1.06178,-11.14409 -4.46167,-22.02873 -11.38341,-30.95339 a51.491460000000004,51.491460000000004 0 0 0 -13.2109,-11.97129 c-1.32109,-0.8338700000000001 -2.537,1.2597800000000001 -1.22166,2.09 a48.95178,48.95178 0 0 1 19.363,23.36288 c4.2156,10.72234 4.89256,22.41059 4.16611,33.8008 c-0.4393100000000001,6.88809 -1.37037,13.731 -2.30861,20.5652 a1.25406,1.25406 0 0 0 0.84528,1.48875 a1.21763,1.21763 0 0 0 1.48874,-0.8452900000000001 z" fill="#f2f2f2" id="svg_2"/><path d="M350.59817,536.4077807568359 a23.20063,23.20063 0 0 1 -20.2149,10.43338 c-10.23314,-0.48578000000000005 -18.7643,-7.62786 -26.444,-14.40842 l-22.7149,-20.05553 l15.0335,-0.71945 c10.8112,-0.51738 21.90132,-1 32.19861,2.334 s19.794,11.35766 21.67693,22.01619 " fill="#e6e6e6" id="svg_3"/><path d="M371.83163,565.513400756836 c-8.20362,-14.51579 -17.71911,-30.64843 -34.72169,-35.80468 a38.74557,38.74557 0 0 0 -14.60449,-1.50794 c-1.55056,0.1337 -1.16337,2.52385 0.3843800000000001,2.39039 a35.99579,35.99579 0 0 1 23.30647,6.166 c6.57154,4.47307 11.68821,10.69183 16.0189,17.28653 c2.65269,4.03945 5.02879,8.25028 7.40535,12.45545 c0.7595000000000001,1.34389 2.97945,0.3738000000000001 2.21108,-0.98579 z" fill="#f2f2f2" id="svg_4"/><path d="M591.71327,274.72368075683596 L412.86,422.9580407568359 a11.02654,11.02654 0 0 1 -15.50846,-1.45176 L321.9565,330.5378207568359 a11.02655,11.02655 0 0 1 1.45176,-15.508469999999999 L502.26149999999996,166.79499075683594 A11.02656,11.02656 0 0 1 517.77,168.24675075683592 L593.165,259.2152107568359 A11.02655,11.02655 0 0 1 591.71327,274.72368075683596 z" fill="#ccc" id="svg_5"/><path d="M584.546,270.2601707568359 L409.80427999999995,415.08684075683595 a5.68027,5.68027 0 0 1 -7.98921,-0.7478700000000001 l-71.98738,-86.8569 a5.68027,5.68027 0 0 1 0.7478800000000001,-7.98921 L505.31724999999994,174.66619075683593 a5.6802600000000005,5.6802600000000005 0 0 1 7.98921,0.7478800000000001 l71.98737,86.85689 A5.6802600000000005,5.6802600000000005 0 0 1 584.546,270.2601707568359 z" fill="#fff" id="svg_6"/><path d="M592.60135,300.57682075683596 l-35.94022,-3.36416 l25.72328,-20.24515 l13.857,16.71931 a4.152,4.152 0 0 1 0.48183000000000004,4.66117 a4.27907,4.27907 0 0 1 -1.05143,1.30238 A4.15966,4.15966 0 0 1 592.60135,300.57682075683596 z" fill="#ccc" id="svg_7"/><path d="M520.42753,236.20167075683594 l-88.39874,73.26526 a5.34016,5.34016 0 1 1 -6.81537,-8.22314 l88.39873,-73.26525 a5.34016,5.34016 0 1 1 6.81538,8.22313 z" fill="#ccc" id="svg_8"/><path d="M477.16387999999995,242.58131075683593 l-59.61775,49.41145 a5.34016,5.34016 0 1 1 -6.81538,-8.22313 l59.61775,-49.41146 a5.34016,5.34016 0 0 1 6.81538,8.22314 z" fill="#ccc" id="svg_9"/><circle cx="384.78656005859375" cy="326.9468994140625" r="16.687999725341797" fill="#ffa500" id="svg_10" class="" fill-opacity="1"/><circle cx="517.5324096679688" cy="288.15570068359375" r="5.340159893035889" fill="#e6e6e6" id="svg_11"/><circle cx="531.9229125976562" cy="276.2287902832031" r="5.340159893035889" fill="#e6e6e6" id="svg_12"/><circle cx="546.3133544921875" cy="264.3018798828125" r="5.340159893035889" fill="#e6e6e6" id="svg_13"/><polygon points="461.198 556.214 473.458 556.213 479.29 508.925 461.196 508.926 461.198 556.214" fill="#ffb8b8" id="svg_14"/><path d="M458.07113000000004,552.2114007568359 l24.14379,-0.0010000000000000002 h0.0010000000000000002 a15.386050000000001,15.386050000000001 0 0 1 15.38648,15.38623 v0.5 l-39.53052,0.0014700000000000004 z" fill="#2f2e41" id="svg_15"/><polygon points="417.198 556.214 429.458 556.213 435.29 508.925 417.196 508.926 417.198 556.214" fill="#ffb8b8" id="svg_16"/><path d="M414.07113000000004,552.2114007568359 l24.14379,-0.0010000000000000002 h0.0010000000000000002 a15.386050000000001,15.386050000000001 0 0 1 15.38648,15.38623 v0.5 l-39.53052,0.0014700000000000004 z" fill="#2f2e41" id="svg_17"/><path d="M429.501,541.745120756836 h-0.0021900000000000005 l-10.42554,-0.0029300000000000007 a4.48165,4.48165 0 0 1 -4.49487,-4.33789 l-0.3283700000000001,-9.1211 c-2.6355,-72.94043 -5.36084,-148.36425 11.51733,-182.26465 l0.13233,-0.2666 l55.88012,-2.02246 l11.21851,102.91114 a44.62081,44.62081 0 0 1 -0.52,13.16406 L477.648,537.9531307568359 a4.49876,4.49876 0 0 1 -4.59717,3.6582 l-11.71045,-0.3798800000000001 a4.50188,4.50188 0 0 1 -4.30176,-4.94336 l9.199,-72.2793 a24.70205,24.70205 0 0 0 -0.8347200000000001,-9.28418 l-11.44043,-39.99414 a1.50016,1.50016 0 0 0 -2.92822,0.20605 L433.95754999999997,537.864260756836 A4.51837,4.51837 0 0 1 429.501,541.745120756836 z" fill="#2f2e41" id="svg_18"/><circle cx="436.1834716796875" cy="216.2806854248047" r="24.5610294342041" fill="#ffb8b8" id="svg_19"/><path d="M479.16043,351.32617075683595 h-50.823 a4.50035,4.50035 0 0 1 -4.45313,-5.15039 l2.51075,-17.19629 l-14.7439,-40.55371 a29.8437,29.8437 0 0 1 24.00879,-39.7666 h0 a29.73019,29.73019 0 0 1 31.02075,16.81543 l3.23853,6.89062 L483.58500000000004,346.00586075683594 a4.49963,4.49963 0 0 1 -4.42456,5.32031 z" fill="#ffa500" id="svg_20" class="" fill-opacity="1"/><path d="M371.87388,394.46221075683593 a10.74268,10.74268 0 0 0 7.44457,-14.694420000000001 l39.60234,-89.47207 l-22.65457,-5.706 L364.462,374.3320907568359 a10.80091,10.80091 0 0 0 7.41184,20.13012 z" fill="#ffb8b8" id="svg_21"/><path d="M413.55976999999996,306.29724075683595 l-22.03344,-10.31357 a4.81689,4.81689 0 0 1 -1.97427,-7.02164 l13.39047,-20.22269 a13.37737,13.37737 0 0 1 24.198,11.41337 l-6.92415,23.16293 a4.81687,4.81687 0 0 1 -6.6566600000000005,2.9816000000000003 z" fill="#6c63ff" id="svg_22" class=""/><path d="M413.55976999999996,306.29724075683595 l-22.03344,-10.31357 a4.81689,4.81689 0 0 1 -1.97427,-7.02164 l13.39047,-20.22269 a13.37737,13.37737 0 0 1 24.198,11.41337 l-6.92415,23.16293 a4.81687,4.81687 0 0 1 -6.6566600000000005,2.9816000000000003 z" fill="#ffa500" class="" id="svg_71" fill-opacity="1"/><path d="M537.0751,164.22382075683595 a10.7427,10.7427 0 0 1 -8.80893,13.91942 L471.69730000000004,257.9778207568359 L455.19476,241.44140075683595 l60.79449,-73.275 a10.80091,10.80091 0 0 1 21.08585,-3.94258 z" fill="#ffb8b8" id="svg_23"/><path d="M484.77876000000003,248.60701075683596 a4.811640000000001,4.811640000000001 0 0 1 -1.23486,3.81607 l-16.34924,17.8092 a13.37737,13.37737 0 0 1 -22.19518,-14.93937 L455.51184,233.43540075683592 a4.81688,4.81688 0 0 1 7.04207,-1.90008 l20.142,13.64334 A4.81143,4.81143 0 0 1 484.77876000000003,248.60701075683596 z" fill="#6c63ff" id="svg_24" class=""/><path d="M484.77876000000003,248.60701075683596 a4.8116400000000015,4.8116400000000015 0 0 1 -1.23486,3.81607 l-16.34924,17.8092 a13.37737,13.37737 0 0 1 -22.19518,-14.93937 L455.51184,233.43540075683592 a4.81688,4.81688 0 0 1 7.04207,-1.90008 l20.142,13.64334 A4.81143,4.81143 0 0 1 484.77876000000003,248.60701075683596 z" fill="#ffa500" class="" id="svg_72" fill-opacity="1"/><path d="M468.45486000000005,206.00000075683596 a25.25979,25.25979 0 0 0 -0.9184599999999999,-6.57593 c-3.957,-14.62243 -18.56543,-23.39868 -33.22509,-21.19629 a31.69966,31.69966 0 0 0 -8.76856,-1.22778 h0 a31.621,31.621 0 0 0 -31.24609,26.767 l-11.8418,76.233 h64 l10.334,-66.52551 a31.77725,31.77725 0 0 0 0.269,-7.47449 z" fill="#2f2e41" id="svg_25"/><path d="M548,568.652800756836 h-211 a1,1 0 1 1 0,-2 h211 a1,1 0 0 1 0,2 z" fill="#ccc" id="svg_26"/><path d="M760.57028,77.66753075683593 a10.05579,10.05579 0 0 1 10.98633,10.81926 l32.70724,14.395 l-15.60167,10.07083 l-28.66745,-15.21368 a10.11027,10.11027 0 0 1 0.57555,-20.07138 z" fill="#a0616a" id="svg_27"/><circle cx="892.5018310546875" cy="35.14965057373047" r="24.5610294342041" fill="#a0616a" id="svg_28"/><polygon points="848.05 385.364 835.79 385.363 829.958 338.075 848.052 338.076 848.05 385.364" fill="#a0616a" id="svg_29"/><path d="M851.17645,397.2477407568359 l-39.53052,-0.0014700000000000004 v-0.5 a15.386050000000001,15.386050000000001 0 0 1 15.38647,-15.38623 h0.0010000000000000002 l24.1438,0.0010000000000000002 z" fill="#2f2e41" id="svg_30"/><polygon points="899.05 385.364 886.79 385.363 880.958 338.075 899.052 338.076 899.05 385.364" fill="#a0616a" id="svg_31"/><path d="M902.1764499999999,397.2477407568359 l-39.53052,-0.0014700000000000004 v-0.5 a15.386050000000001,15.386050000000001 0 0 1 15.38647,-15.38623 h0.0010000000000000002 l24.1438,0.0010000000000000002 z" fill="#2f2e41" id="svg_32"/><path d="M898.46878,375.29199075683596 a4.50658,4.50658 0 0 1 -0.54883,-0.03418000000000001 l-17.9458,-2.209 a4.49289,4.49289 0 0 1 -3.94434,-4.23535 L870.80032,251.04980075683596 a1.49993,1.49993 0 0 0 -2.8574200000000003,-0.55371 l-13.43433,44.78418 L851.742,367.21680075683594 a4.498,4.498 0 0 1 -5.0227,4.29492 l-15.54053,-1.8291 a4.48512,4.48512 0 0 1 -3.97315,-4.55664 l1.31934,-67.71387 l10.52881,-106.292 l0.47046000000000004,0.017580000000000005 l64.02221,2.46777 l-0.5769000000000001,177.20117 a4.50146,4.50146 0 0 1 -4.50073,4.48535 z" fill="#2f2e41" id="svg_33"/><path d="M901.12014,203.31840075683596 c-0.039060000000000004,0 -0.07812000000000002,0 -0.11743000000000002,-0.0010000000000000002 l-64.479,-1.6894500000000001 a4.49979,4.49979 0 0 1 -4.34107,-5.10449 l12.39014,-91.19141 a44.13237,44.13237 0 0 1 18.68018,-30.792 a38.19591,38.19591 0 0 1 31.10815,-5.54688 c22.5061,5.70313 36.00757,29.87012 30.09717,53.87207 l-18.968,77.0293 A4.52648,4.52648 0 0 1 901.12014,203.31840075683596 z" fill="#3f3d56" id="svg_34"/><path d="M816.52981,130.90430075683594 a21.82211,21.82211 0 0 1 -11.96411,-3.55469 l-37.60229,-24.66992 a4.4992,4.4992 0 0 1 -0.79883,-6.85645 l5.66455,-5.98047 a4.48379,4.48379 0 0 1 4.93164,-1.08691 l42.00171,16.72559 l38.90869,-27.78614 a16.15455,16.15455 0 1 1 16.44629,27.67774 l-48.08814,23.35742 A21.74021,21.74021 0 0 1 816.52981,130.90430075683594 z" fill="#3f3d56" id="svg_35"/><path d="M901.01241,58.63772075683593 c4.19022,0.9894 9.24531,1.7486300000000001 12.23986,-1.34484 a12.5105,12.5105 0 0 0 1.41592,-1.89006 l3.9152,-5.97741 c2.9992,-4.57894 6.05107,-9.27733 7.3205,-14.60185 a23.74125,23.74125 0 0 0 -17.90687,-28.67359 c-5.84568,-1.30882 -11.56585,-3.5607800000000003 -17.54216,-3.15 s-12.98468,0.27592000000000005 -18,-3 c0.31289000000000006,1.46046 2.00253,7.9134 2.00253,7.9134 s-7.5414,6.9186700000000005 -9.054,8.64384 a14.1663,14.1663 0 0 1 19.723,10.67121 c0.42810000000000004,2.6258500000000002 0.17666,5.538 1.7366800000000002,7.69318 c1.48376,2.0498 4.14514,2.7680000000000002 6.38173,3.95152 a15.56319,15.56319 0 0 1 6.84685,19.04477 z" fill="#2f2e41" id="svg_36"/><path d="M871.52308,212.11483075683594 H667.93361 a9.66388,9.66388 0 0 1 -9.653,-9.653 V98.91206075683596 a9.66388,9.66388 0 0 1 9.653,-9.653 H871.52308 a9.66387,9.66387 0 0 1 9.65295,9.653 V202.4618807568359 A9.66387,9.66387 0 0 1 871.52308,212.11483075683594 z" fill="#ccc" id="svg_37"/><path d="M869.183,205.09450075683594 H670.27372 a4.97829,4.97829 0 0 1 -4.97273,-4.97273 v-98.8696 a4.97829,4.97829 0 0 1 4.97273,-4.97273 H869.183 a4.9783,4.9783 0 0 1 4.97274,4.97273 v98.8696 A4.9783,4.9783 0 0 1 869.183,205.09450075683594 z" fill="#fff" id="svg_38"/><path d="M857.66361,230.05678075683596 l-22.37044,-22.37015 l28.68,0.7250000000000001 V227.44330075683592 a3.63886,3.63886 0 0 1 -2.28169,3.41475 a3.7501700000000002,3.7501700000000002 0 0 1 -1.4378600000000001,0.29080000000000006 A3.64556,3.64556 0 0 1 857.66361,230.05678075683596 z" fill="#ccc" id="svg_39"/><path d="M844.96457,146.25324075683596 H744.33988 a4.68022,4.68022 0 1 1 0,-9.36044 H844.96457 a4.68022,4.68022 0 0 1 0,9.36044 z" fill="#ccc" id="svg_40"/><path d="M812.203,126.36231075683594 H744.33988 a4.68022,4.68022 0 1 1 0,-9.360430000000001 H812.203 a4.68021,4.68021 0 1 1 0,9.360430000000001 z" fill="#ccc" id="svg_41"/><circle cx="702.6856689453125" cy="131.6275634765625" r="14.625679969787598" fill="#ffa500" id="svg_42" class="" fill-opacity="1"/><circle cx="813.9549560546875" cy="179.69183349609375" r="4.680220127105713" fill="#e6e6e6" id="svg_43"/><circle cx="830.3357543945312" cy="179.69183349609375" r="4.680220127105713" fill="#e6e6e6" id="svg_44"/><circle cx="846.7164916992188" cy="179.69183349609375" r="4.680220127105713" fill="#e6e6e6" id="svg_45"/><path d="M868.3706,199.80040075683593 a10.05578,10.05578 0 0 1 12.8385,-8.53983 l20.78344,-29.06936 l6.665,17.33237 l-20.75813,24.94752 a10.11027,10.11027 0 0 1 -19.52885,-4.6707 z" fill="#a0616a" id="svg_46"/><path d="M892.17789,198.23190075683596 a4.53555,4.53555 0 0 1 -0.98107,-0.024660000000000005 a4.48884,4.48884 0 0 1 -3.20506,-2.06 l-4.39223,-6.96833 a4.4798100000000005,4.4798100000000005 0 0 1 0.16818000000000002,-5.04824 l26.602,-36.55347 l-17.29062,-44.57587 a16.06991,16.06991 0 0 1 8.81348,-20.73946 h0 a16.154,16.154 0 0 1 22.07333,11.65569 l10.72775,52.37339 a21.8839,21.8839 0 0 1 -6.65051,20.45445 l-33.21,30.32536 A4.4868,4.4868 0 0 1 892.17789,198.23190075683596 z" fill="#3f3d56" id="svg_47"/><path d="M948,399.652800756836 h-211 a1,1 0 0 1 0,-2 h211 a1,1 0 0 1 0,2 z" fill="#ccc" id="svg_48"/><path d="M256.61757,150.77625075683596 H53.028099999999995 a9.66388,9.66388 0 0 1 -9.653,-9.653 V37.57348075683595 a9.66387,9.66387 0 0 1 9.653,-9.653 H256.61757 a9.66387,9.66387 0 0 1 9.65295,9.653 V141.12330075683593 A9.66388,9.66388 0 0 1 256.61757,150.77625075683596 z" fill="#ccc" id="svg_49"/><path d="M254.27746000000002,143.75592075683596 H55.368210000000005 a4.97829,4.97829 0 0 1 -4.97273,-4.97273 v-98.8696 a4.9783,4.9783 0 0 1 4.97273,-4.97274 H254.27746000000002 a4.9783,4.9783 0 0 1 4.97273,4.97274 v98.8696 A4.97829,4.97829 0 0 1 254.27746000000002,143.75592075683596 z" fill="#fff" id="svg_50"/><path d="M242.7581,168.71820075683593 l-22.37044,-22.37015 l28.68,0.7250000000000001 v19.03167 a3.63886,3.63886 0 0 1 -2.28169,3.41475 a3.7502,3.7502 0 0 1 -1.4378600000000001,0.29080000000000006 A3.64558,3.64558 0 0 1 242.7581,168.71820075683593 z" fill="#ccc" id="svg_51"/><path d="M230.05905,84.91466075683593 H129.43437 a4.68022,4.68022 0 1 1 0,-9.36044 H230.05905 a4.68022,4.68022 0 0 1 0,9.36044 z" fill="#ccc" id="svg_52"/><path d="M197.29753,65.02373075683593 H129.43437 a4.68022,4.68022 0 1 1 0,-9.36044 h67.86316 a4.68022,4.68022 0 1 1 0,9.36044 z" fill="#ccc" id="svg_53"/><circle cx="87.7801513671875" cy="70.28897094726562" r="14.625679969787598" fill="#ffa500" id="svg_54" class="" fill-opacity="1"/><circle cx="199.04945373535156" cy="118.35325622558594" r="4.680220127105713" fill="#e6e6e6" id="svg_55"/><circle cx="215.4302215576172" cy="118.35325622558594" r="4.680220127105713" fill="#e6e6e6" id="svg_56"/><circle cx="231.81097412109375" cy="118.35325622558594" r="4.680220127105713" fill="#e6e6e6" id="svg_57"/><path d="M248.1744,17.971400756835948 a10.05575,10.05575 0 0 0 -5.3100000000000005,14.47619 l-23.4203,26.99016 l18.40886,2.4387600000000003 l19.418,-26.0042 A10.11027,10.11027 0 0 0 248.1744,17.971400756835948 z" fill="#ffb8b8" id="svg_58"/><path d="M91.79809,28.77695075683593 a10.0558,10.0558 0 0 1 -7.75445,13.32757 l-5.82806,35.25639 L64.58806999999999,64.74640075683592 l7.623670000000001,-31.54613 a10.11027,10.11027 0 0 1 19.58635,-4.42336 z" fill="#ffb8b8" id="svg_59"/><polygon points="128.399 385.364 140.659 385.363 146.491 338.075 128.397 338.076 128.399 385.364" fill="#ffb8b8" id="svg_60"/><path d="M125.27163999999999,381.36102075683596 l24.1438,-0.0010000000000000002 h0.0010000000000000002 a15.386050000000001,15.386050000000001 0 0 1 15.38647,15.38623 v0.5 l-39.53052,0.0014700000000000004 z" fill="#2f2e41" id="svg_61"/><polygon points="65.399 385.364 77.659 385.363 83.491 338.075 65.397 338.076 65.399 385.364" fill="#ffb8b8" id="svg_62"/><path d="M62.27163999999999,381.36102075683596 l24.1438,-0.0010000000000000002 h0.0010000000000000002 a15.386050000000001,15.386050000000001 0 0 1 15.38647,15.38623 v0.5 l-39.53052,0.0014700000000000004 z" fill="#2f2e41" id="svg_63"/><circle cx="125.83969116210938" cy="37.94709014892578" r="24.5610294342041" fill="#ffb8b8" id="svg_64"/><path d="M122.89556999999999,369.65456075683596 l-2.03076,-129.40625 a1.4998500000000001,1.4998500000000001 0 0 0 -2.95923,-0.32422000000000006 l-33.291,126.57617 a4.55506,4.55506 0 0 1 -4.571,3.459 l-18.29,-0.78223 a4.50093,4.50093 0 0 1 -4.272,-5.06055 l28.24878,-162.6582 l0.05786000000000001,-0.459 l78.68213,3.7226500000000002 l0.51318,0.023440000000000006 L148.11115,369.9250707568359 a4.51892,4.51892 0 0 1 -4.48731,4.166 H127.39508000000001 A4.51825,4.51825 0 0 1 122.89556999999999,369.65456075683596 z" fill="#2f2e41" id="svg_65"/><path d="M185.04034000000001,215.68386075683594 l-114.17773,-9.37012 a4.49926,4.49926 0 0 1 -3.86353,-6.01465 l17.98072,-49.71191 l1.03467,-59.00293 a16.18147,16.18147 0 0 1 16.667,-15.89063 l7.593,-6.88281 h27.81958 l2.4223600000000003,3.17578 l19.35718,2.97461 a16.27225,16.27225 0 0 1 13.58007,13.833 L189.868,210.59889075683594 a4.5006,4.5006 0 0 1 -4.45386,5.10059 C185.2901,215.69948075683595 185.16534000000001,215.69460075683594 185.04034000000001,215.68386075683594 z" fill="#2f2e41" id="svg_66"/><path d="M162.79424999999998,80.68093075683595 l48.68359,-14.26368 L233.51056,37.409400756835936 a4.4987200000000005,4.4987200000000005 0 0 1 5.35229,-1.416 l13.75635,5.87988 a4.49956,4.49956 0 0 1 2.11914,6.40332 l-16.46557,28.25586 A25.19721,25.19721 0 0 1 226.61900000000003,86.95534075683594 l-57.26123,25.3125 z" fill="#2f2e41" id="svg_67"/><path d="M69.39287999999999,102.01784075683594 a20.86486,20.86486 0 0 1 -8.60376,-18.5752 l2.13648,-28.30761 a4.51169,4.51169 0 0 1 4.48755,-4.16114 h0.039790000000000006 l16.13184,0.14356000000000002 a4.5009,4.5009 0 0 1 4.376,5.36523 l-2.99316,15.27149 l21.36011,9.02539 l-17.98706,34.99316 z" fill="#2f2e41" id="svg_68"/><path d="M140.12781999999999,8.496100756835943 s-25.685,-13.83022 -39.685,2.49239 s5.3339,41.8476 5.3339,41.8476 l27.548000000000002,3.4744 s1,-18.72648 7.559,-18.36293 S167.81286,14.681090756835943 140.12781999999999,8.496100756835943 z" fill="#2f2e41" id="svg_69"/><path d="M212,398.652800756836 h-211 a1,1 0 0 1 0,-2 h211 a1,1 0 0 1 0,2 z" fill="#ccc" id="svg_70"/></g></svg>